<?xml version="1.0" ?><svg height="64" viewBox="0 0 64 64" width="64" xmlns="http://www.w3.org/2000/svg"><title/><g id="Icon"><path d="M49,33H48V21a2.006,2.006,0,0,0-2-2H24a2.006,2.006,0,0,0-2,2V33H15a2.006,2.006,0,0,0-2,2v2a2.006,2.006,0,0,0,2,2H26.52a8.993,8.993,0,0,0,16.96,0H49a2.006,2.006,0,0,0,2-2V35A2.006,2.006,0,0,0,49,33ZM24,21H46v2H24Zm2.06,16H15V35H26.06a8.363,8.363,0,0,0,0,2ZM28,36a6.852,6.852,0,0,1,1.4-4.18l2.16,2.16a3.923,3.923,0,0,0,0,4.04L29.4,40.18A6.852,6.852,0,0,1,28,36Zm7-4a3.882,3.882,0,0,0-2.02.56L30.82,30.4a6.94,6.94,0,0,1,8.36,0l-2.16,2.16A3.882,3.882,0,0,0,35,32Zm2,4a2,2,0,1,1-2-2A2.006,2.006,0,0,1,37,36Zm-2,7a6.852,6.852,0,0,1-4.18-1.4l2.16-2.16a3.923,3.923,0,0,0,4.04,0l2.16,2.16A6.852,6.852,0,0,1,35,43Zm5.6-2.82-2.16-2.16a3.923,3.923,0,0,0,0-4.04l2.16-2.16a6.94,6.94,0,0,1,0,8.36ZM35,27a9,9,0,0,0-8.48,6H24V25H46v8H43.48A9,9,0,0,0,35,27ZM49,37H43.94a8.363,8.363,0,0,0,0-2H49Z"/></g></svg>